<svg width="106" height="53" viewBox="0 0 106 53" fill="none" xmlns="http://www.w3.org/2000/svg">
<g clip-path="url(#clip0_73667_72)">
<path d="M26.7569 44.8221C27.0006 45.0983 27.1304 45.4441 27.1236 45.7991C27.136 46.0307 27.0914 46.2618 26.993 46.4754C26.8947 46.689 26.7451 46.8797 26.5554 47.0332C26.082 47.3605 25.4956 47.5205 24.9037 47.4838H22V41.2924H24.8442C25.4057 41.2582 25.9626 41.4036 26.42 41.7037C26.6036 41.8445 26.7491 42.0224 26.8448 42.2235C26.9406 42.4245 26.984 42.6431 26.9716 42.8622C26.9883 43.2037 26.8712 43.5395 26.6413 43.8089C26.4206 44.0549 26.1156 44.2254 25.7758 44.2928C26.161 44.3572 26.5087 44.5448 26.7569 44.8221ZM23.3511 43.8875H24.5667C24.843 43.9062 25.1174 43.8332 25.3397 43.6819C25.431 43.6061 25.502 43.5122 25.5473 43.4073C25.5925 43.3024 25.6108 43.1893 25.6007 43.0769C25.6093 42.9649 25.5906 42.8526 25.5461 42.748C25.5015 42.6434 25.4322 42.5491 25.343 42.472C25.1141 42.3164 24.8312 42.2422 24.5469 42.2633H23.3511V43.8875ZM25.4587 46.2619C25.5562 46.1843 25.6329 46.0872 25.6828 45.9781C25.7326 45.869 25.7543 45.7508 25.7461 45.6328C25.7535 45.5133 25.7309 45.3939 25.6799 45.2838C25.6289 45.1737 25.551 45.0757 25.4521 44.9976C25.2142 44.8361 24.9217 44.7569 24.6262 44.7738H23.3511V46.4766H24.6427C24.9334 46.492 25.2212 46.4163 25.4587 46.2619Z" fill="#AFB1B8"/>
<path d="M32.5709 47.4839L30.9886 45.0641H30.394V47.4839H29.033V41.2924H31.6096C32.2591 41.2509 32.9012 41.4393 33.4034 41.8187C33.7635 42.1547 33.9808 42.5975 34.0159 43.0672C34.051 43.537 33.9018 44.0027 33.595 44.3806C33.2771 44.714 32.8428 44.9364 32.3661 45.0097L34.0508 47.4839H32.5709ZM30.394 44.2203H31.5072C32.2802 44.2203 32.6667 43.9077 32.6667 43.2826C32.6746 43.155 32.6534 43.0272 32.6045 42.9074C32.5556 42.7877 32.48 42.6785 32.3826 42.5869C32.1383 42.4009 31.8237 42.3107 31.5072 42.3359H30.3807L30.394 44.2203Z" fill="#AFB1B8"/>
<path d="M40.0101 46.2376H37.298L36.819 47.4837H35.392L37.8827 41.3618H39.4254L41.9063 47.4837H40.4792L40.0101 46.2376ZM39.6467 45.2999L38.6557 42.6866L37.6647 45.2999H39.6467Z" fill="#AFB1B8"/>
<path d="M49.3225 47.4838H47.9714L44.9421 43.2735V47.4838H43.5944V41.2924H44.9421L47.9714 45.5269V41.2924H49.3225V47.4838Z" fill="#AFB1B8"/>
<path d="M57.0326 46.0018C56.7532 46.4692 56.3276 46.8495 55.8103 47.0937C55.2222 47.3657 54.5695 47.4998 53.9109 47.4839H51.506V41.2924H53.9109C54.5684 41.2767 55.2202 41.4075 55.8103 41.6735C56.3275 41.9122 56.7536 42.2886 57.0326 42.7533C57.3107 43.2569 57.4556 43.8133 57.4556 44.3776C57.4556 44.9418 57.3107 45.4982 57.0326 46.0018ZM55.4866 45.8536C55.8722 45.4423 56.0842 44.9181 56.0842 44.376C56.0842 43.834 55.8722 43.3098 55.4866 42.8985C55.0205 42.5259 54.4127 42.3368 53.7952 42.3722H52.8571V46.3799H53.7952C54.4127 46.4153 55.0205 46.2261 55.4866 45.8536Z" fill="#AFB1B8"/>
<path d="M40.8558 6.85364C40.8558 6.85364 58.2945 12.8818 57.9245 21.6049V36.3591C57.9245 36.3591 40.4991 30.328 40.8624 21.6049L40.8558 6.85364Z" fill="#AFB1B8"/>
<path d="M73.4603 32.9049C76.7538 30.8296 80.5633 29.5442 84.5399 29.1664V24.5478C79.9579 26.1648 76.0709 29.0967 73.4603 32.9049Z" fill="#AFB1B8"/>
<path d="M71.4816 34.2964C74.1773 29.3265 78.8505 25.4914 84.54 23.58V10.2715C84.54 10.2715 59.705 18.8585 60.2303 31.2808V52.287C60.2303 52.287 61.3369 51.9029 63.0778 51.183C63.0778 50.5115 63.0778 49.834 63.1571 49.1535C63.6711 43.3865 66.6654 38.0424 71.4816 34.2964Z" fill="#AFB1B8"/>
<path d="M69.1197 42.1C69.2502 40.6432 69.5413 39.2021 69.9885 37.799C66.9896 41.034 65.1734 45.0484 64.7956 49.2775C64.7592 49.6768 64.7394 50.076 64.7295 50.4874C66.14 49.8673 67.7818 49.093 69.5062 48.1826C69.0662 46.1817 68.936 44.1341 69.1197 42.1Z" fill="#AFB1B8"/>
<path d="M70.1074 42.1756C69.9421 44.0159 70.0454 45.8682 70.4146 47.6835C77.1998 43.9662 84.8241 38.2224 84.5301 31.2808V30.6759C79.6823 31.1726 75.1468 33.1129 71.6204 36.1989C70.7947 38.1113 70.2848 40.1257 70.1074 42.1756Z" fill="#AFB1B8"/>
</g>
<defs>
<clipPath id="clip0_73667_72">
<rect width="106" height="52.8261" fill="white" transform="translate(0 0.0869751)"/>
</clipPath>
</defs>
</svg>
