<svg width="106" height="53" viewBox="0 0 106 53" fill="none" xmlns="http://www.w3.org/2000/svg">
<path d="M36.4063 49.1885C36.4222 49.1888 36.4379 49.192 36.4524 49.1977C36.4669 49.2034 36.4799 49.2115 36.4908 49.2216L36.7089 49.4301C36.5396 49.5989 36.3304 49.7338 36.0955 49.8258C35.8204 49.9261 35.5239 49.9746 35.2257 49.9679C34.9455 49.973 34.6671 49.9278 34.4078 49.8353C34.1739 49.7503 33.9638 49.6226 33.7916 49.4609C33.6159 49.2932 33.4805 49.0967 33.3935 48.8828C33.2982 48.6445 33.2512 48.3936 33.2545 48.1413C33.2506 47.8873 33.3015 47.635 33.4044 47.3973C33.4997 47.1821 33.6433 46.9856 33.827 46.8192C34.0132 46.6561 34.2359 46.5279 34.4814 46.4425C34.7499 46.3521 35.0359 46.307 35.3239 46.3098C35.5914 46.3042 35.8575 46.3453 36.1064 46.4307C36.3223 46.5121 36.5206 46.6251 36.6926 46.7647L36.5099 46.9874C36.4973 47.0031 36.4816 47.0168 36.4635 47.0277C36.442 47.0406 36.4159 47.0464 36.3899 47.0443C36.3616 47.0426 36.3343 47.0344 36.3109 47.0206L36.2127 46.9614L36.0764 46.8856C36.0175 46.8574 35.9565 46.8329 35.8937 46.8121C35.8128 46.787 35.7299 46.7672 35.6456 46.7529C35.5386 46.7358 35.4299 46.7278 35.3211 46.7292C35.1138 46.7269 34.908 46.7608 34.7159 46.8287C34.5367 46.8916 34.375 46.9869 34.2415 47.1083C34.1055 47.2373 34.0007 47.3888 33.9334 47.5537C33.8566 47.7423 33.8187 47.9412 33.8216 48.1413C33.8183 48.3444 33.8561 48.5465 33.9334 48.7383C33.9999 48.9018 34.1027 49.0523 34.236 49.1814C34.3609 49.3017 34.5157 49.3956 34.6886 49.4562C34.8666 49.5203 35.0576 49.5525 35.2503 49.551C35.3615 49.5524 35.4728 49.5461 35.5829 49.532C35.7627 49.5129 35.9351 49.4587 36.0873 49.3733C36.1636 49.3295 36.2356 49.2804 36.3027 49.2264C36.3307 49.2031 36.3676 49.1896 36.4063 49.1885Z" fill="#AFB1B8"/>
<path d="M42.7044 48.1408C42.7078 48.3922 42.6579 48.642 42.5572 48.8776C42.4684 49.0914 42.3284 49.2863 42.1465 49.4497C41.9646 49.613 41.745 49.741 41.5021 49.8252C40.9683 50.0022 40.3782 50.0022 39.8444 49.8252C39.603 49.7397 39.3848 49.6114 39.2037 49.4486C39.0219 49.2822 38.8809 49.0856 38.7893 48.8705C38.5929 48.3933 38.5929 47.8718 38.7893 47.3946C38.8823 47.1794 39.0231 46.9822 39.2037 46.8142C39.3864 46.6564 39.6045 46.533 39.8444 46.4517C40.3775 46.2716 40.969 46.2716 41.5021 46.4517C41.7443 46.5372 41.9634 46.6655 42.1455 46.8284C42.325 46.9931 42.465 47.1872 42.5572 47.3993C42.6582 47.6366 42.7081 47.8879 42.7044 48.1408ZM42.1319 48.1408C42.1362 47.9398 42.1011 47.7395 42.0283 47.5486C41.9672 47.385 41.8679 47.2342 41.7366 47.1056C41.6087 46.9839 41.4513 46.8884 41.2758 46.826C40.8879 46.6965 40.4586 46.6965 40.0707 46.826C39.8952 46.8884 39.7378 46.9839 39.6099 47.1056C39.4768 47.2335 39.3764 47.3845 39.3155 47.5486C39.1768 47.9342 39.1768 48.3475 39.3155 48.7331C39.377 48.897 39.4773 49.0479 39.6099 49.1761C39.7379 49.2971 39.8953 49.3918 40.0707 49.4533C40.4593 49.5795 40.8872 49.5795 41.2758 49.4533C41.4512 49.3918 41.6086 49.2971 41.7366 49.1761C41.8673 49.0471 41.9665 48.8964 42.0283 48.7331C42.1015 48.5423 42.1365 48.342 42.1319 48.1408Z" fill="#AFB1B8"/>
<path d="M47.0013 48.7617L47.0586 48.8944C47.0804 48.847 47.0995 48.8044 47.1213 48.7617C47.1421 48.7172 47.1657 48.6737 47.1922 48.6315L48.5854 46.4309C48.6127 46.393 48.6372 46.3693 48.6645 46.3622C48.7015 46.3524 48.7403 46.3484 48.779 46.3503H49.1907V49.9295H48.7026V47.2978C48.7026 47.2647 48.7026 47.2268 48.7026 47.1865C48.7 47.1455 48.7 47.1044 48.7026 47.0633L47.3012 49.2947C47.2834 49.3281 47.255 49.3564 47.2192 49.3761C47.1834 49.3959 47.1418 49.4063 47.0995 49.406H47.0204C46.9779 49.4066 46.9362 49.3963 46.9004 49.3765C46.8646 49.3568 46.8362 49.3283 46.8186 49.2947L45.3763 47.0491C45.3763 47.0918 45.3763 47.1344 45.3763 47.177C45.3763 47.2197 45.3763 47.2576 45.3763 47.2907V49.9224H44.9047V46.3503H45.3164C45.355 46.3484 45.3938 46.3524 45.4309 46.3622C45.4647 46.3767 45.4916 46.401 45.5072 46.4309L46.9304 48.6338C46.9584 48.6745 46.9821 48.7174 47.0013 48.7617Z" fill="#AFB1B8"/>
<path d="M52.2444 48.5839V49.9246H51.6991V46.3502H52.9151C53.1446 46.3464 53.3735 46.3727 53.594 46.4284C53.7705 46.4718 53.9341 46.5478 54.0739 46.651C54.195 46.7478 54.2883 46.8679 54.3465 47.0016C54.4109 47.1474 54.4423 47.3026 54.4392 47.4588C54.4416 47.6155 54.4073 47.7711 54.3383 47.9159C54.2728 48.0531 54.1721 48.1754 54.0439 48.2736C53.904 48.3812 53.7395 48.4619 53.5613 48.5105C53.349 48.5694 53.127 48.5974 52.9042 48.5934L52.2444 48.5839ZM52.2444 48.2002H52.9042C53.0475 48.2018 53.1902 48.1834 53.3268 48.1457C53.4395 48.1127 53.5433 48.0604 53.6322 47.9917C53.7141 47.9262 53.7775 47.8451 53.8176 47.7549C53.8622 47.6594 53.8844 47.5571 53.883 47.454C53.8893 47.3547 53.8707 47.2553 53.8283 47.1628C53.7859 47.0704 53.7208 46.9871 53.6376 46.9187C53.4293 46.7774 53.1677 46.709 52.9042 46.7268H52.2444V48.2002Z" fill="#AFB1B8"/>
<path d="M59.5731 49.9294H59.1423C59.0991 49.9309 59.0566 49.9191 59.0223 49.8963C58.9914 49.874 58.9671 49.8455 58.9514 49.8133L58.5806 48.9487H56.7185L56.334 49.8133C56.3199 49.845 56.2964 49.8727 56.2659 49.8939C56.2312 49.9181 56.1877 49.9308 56.1432 49.9294H55.7124L57.3483 46.3499H57.9154L59.5731 49.9294ZM56.8739 48.6004H58.4116L57.7627 47.1435C57.7131 47.0339 57.6721 46.9215 57.64 46.8071L57.5773 46.9942C57.5582 47.0511 57.5364 47.1032 57.5173 47.1458L56.8739 48.6004Z" fill="#AFB1B8"/>
<path d="M61.9288 46.3665C61.9614 46.382 61.9894 46.4039 62.0106 46.4305L64.3962 49.1287C64.3962 49.0861 64.3962 49.0435 64.3962 49.0032C64.3962 48.9629 64.3962 48.9226 64.3962 48.8847V46.3499H64.8843V49.9294H64.6116C64.5729 49.9305 64.5345 49.9231 64.4998 49.9081C64.4662 49.8911 64.4365 49.8685 64.4126 49.8418L62.0297 47.1459C62.0323 47.1869 62.0323 47.2281 62.0297 47.2691C62.0297 47.3094 62.0297 47.3449 62.0297 47.3781V49.9294H61.5416V46.3499H61.8306C61.8644 46.3491 61.8979 46.3548 61.9288 46.3665Z" fill="#AFB1B8"/>
<path d="M68.9031 48.5058V49.9272H68.3578V48.5058L66.8501 46.3501H67.3381C67.3802 46.3479 67.4218 46.3588 67.4554 46.3809C67.4851 46.4039 67.51 46.4311 67.529 46.4614L68.4724 47.852C68.5105 47.9112 68.5432 47.9657 68.5705 48.0178C68.5978 48.07 68.6196 48.1197 68.6387 48.1695L68.7096 48.0155C68.736 47.9592 68.767 47.9045 68.8023 47.852L69.732 46.452C69.7516 46.424 69.7754 46.3985 69.8029 46.3761C69.8352 46.3516 69.8772 46.3389 69.9201 46.3406H70.4136L68.9031 48.5058Z" fill="#AFB1B8"/>
<path d="M46.7314 40.3431C46.9686 40.3692 47.2086 40.3905 47.4512 40.4094C51.1301 38.9796 54.2422 36.6393 56.3987 33.6812C58.5552 30.723 59.6603 27.2782 59.5759 23.7774L55.5216 20.2548C56.346 23.9821 55.9604 27.8352 54.408 31.3829C52.8555 34.9306 50.1976 38.0331 46.7314 40.3431Z" fill="#AFB1B8"/>
<path d="M45.2837 40.1793L45.3928 40.1982C49.0966 37.8964 51.9205 34.682 53.4993 30.9708C55.078 27.2597 55.3389 23.2223 54.2483 19.3809L48.4737 14.3637C50.8094 18.4877 51.7495 23.1031 51.1848 27.6731C50.6201 32.2432 48.5737 36.58 45.2837 40.1793Z" fill="#AFB1B8"/>
<path d="M64.868 27.9136C63.8869 31.7602 61.5042 35.2293 58.0736 37.8059C57.0717 38.5626 55.991 39.2366 54.8455 39.8194C57.6389 39.1061 60.2065 37.8448 62.3503 36.133C64.494 34.4212 66.1567 32.3044 67.21 29.9461L64.868 27.9136Z" fill="#AFB1B8"/>
<path d="M63.949 27.3472L60.6146 24.45C60.5508 27.7531 59.47 30.9811 57.4845 33.7985C55.499 36.6158 52.6813 38.9198 49.3242 40.4708H49.3406C50.0887 40.4706 50.8362 40.4318 51.579 40.3547C54.7164 39.2421 57.488 37.472 59.6464 35.2023C61.8049 32.9326 63.283 30.234 63.949 27.3472Z" fill="#AFB1B8"/>
<path d="M45.7663 12.2479L41.7883 8.78699C38.2322 9.98094 35.1738 12.0799 33.0134 14.8091C30.8529 17.5383 29.6912 20.7706 29.6801 24.0829V24.0829C29.6934 27.743 31.1113 31.2947 33.7093 34.1758C36.3073 37.057 39.9371 39.103 44.0241 39.9901C47.6725 36.128 49.8086 31.3558 50.1219 26.3668C50.4352 21.3778 48.9094 16.432 45.7663 12.2479Z" fill="#AFB1B8"/>
<path d="M73.1401 26.8144C73.1257 22.4719 71.1339 18.3108 67.5997 15.2402C64.0656 12.1696 59.2764 10.439 54.2784 10.4265C51.9688 10.4244 49.6789 10.7947 47.5249 11.5186L71.8805 32.6797C72.7144 30.8091 73.1415 28.8203 73.1401 26.8144Z" fill="#AFB1B8"/>
</svg>
