<svg width="106" height="53" viewBox="0 0 106 53" fill="none" xmlns="http://www.w3.org/2000/svg">
<g clip-path="url(#clip0_73667_15)">
<path fill-rule="evenodd" clip-rule="evenodd" d="M50.1135 6.0215H49.9769C49.7669 6.00878 49.557 6.0037 49.347 5.99861H49.347H49.3268H48.8917C48.4945 5.99861 48.0897 6.00878 47.6875 6.02912C47.6572 6.02692 47.6267 6.02692 47.5964 6.02912C43.9521 6.23561 40.3816 7.14649 37.0804 8.7119L36.6478 8.92042V31.0616L37.6597 30.7183C38.5476 30.4131 39.4937 30.1385 40.4727 29.8842C43.1192 29.2048 45.8366 28.8437 48.5678 28.8085V31.7176C48.2061 31.7202 47.8545 31.7303 47.5028 31.7481H47.4193C45.3174 31.8634 43.2315 32.1837 41.1912 32.7043C38.607 33.3512 36.1142 34.3226 33.7715 35.5956V7.19886C36.2046 5.77973 38.8252 4.71385 41.5554 4.03294C43.9526 3.41403 46.4168 3.09628 48.8917 3.08698H49.3192C49.8302 3.09969 50.3285 3.12258 50.7965 3.15818C52.0296 3.24475 53.2527 3.4396 54.452 3.7405V6.60382C53.2873 6.33248 52.103 6.15393 50.9104 6.06981C50.8862 6.06777 50.862 6.0657 50.8377 6.06363C50.591 6.04258 50.3439 6.0215 50.1135 6.0215ZM55.1527 8.94836C55.7876 8.99667 56.4453 9.01956 57.1107 9.01956C59.7124 9.01005 62.303 8.67781 64.8238 8.03037C67.4067 7.38094 69.8985 6.40875 72.2409 5.13654V33.0272C69.8065 34.4455 67.1852 35.5113 64.4545 36.1931C62.057 36.8097 59.5929 37.1265 57.1182 37.1365C55.2432 37.1517 53.3736 36.9313 51.5529 36.4805V8.40926C51.9829 8.50844 52.4256 8.59998 52.8759 8.67627C53.6146 8.80087 54.3937 8.89242 55.1527 8.94836ZM69.3469 9.16451L68.335 9.50526C67.4041 9.81804 66.4656 10.0978 65.522 10.347C62.7748 11.0529 59.9513 11.4151 57.1157 11.4252C56.4555 11.4252 55.8483 11.4074 55.2614 11.3692L54.4545 11.3158V31.4048V34.0927L55.1476 34.1537C55.7901 34.2096 56.4529 34.2376 57.1208 34.2376C59.3543 34.2281 61.578 33.9403 63.7411 33.3806C65.5222 32.9339 67.2551 32.3112 68.9144 31.5218L69.3469 31.3133V9.16451Z" fill="#AFB1B8"/>
<path d="M35.7373 45.2994C35.5918 45.1485 35.4164 45.0301 35.2225 44.9516C35.0286 44.8732 34.8204 44.8366 34.6115 44.8442C34.3889 44.8413 34.1679 44.8828 33.9614 44.9663C33.772 45.0417 33.5999 45.1551 33.4554 45.2994C33.3126 45.4442 33.2014 45.6175 33.1291 45.808C33.0498 46.0077 33.0103 46.2211 33.0127 46.4361V50.2301C33.0037 50.4975 33.0547 50.7634 33.162 51.0083C33.2516 51.2027 33.3808 51.376 33.5415 51.5168C33.6931 51.6445 33.8711 51.7366 34.0626 51.7864C34.2471 51.8382 34.4377 51.8648 34.6292 51.8652C34.8405 51.8673 35.0497 51.8222 35.2414 51.733C35.4311 51.65 35.6029 51.5308 35.7474 51.3821C35.8883 51.2347 36.0006 51.0622 36.0788 50.8735C36.1599 50.6822 36.2012 50.4762 36.2002 50.2683V49.8436H35.2085V50.1818C35.2115 50.2973 35.1917 50.4122 35.1504 50.52C35.1181 50.6008 35.0689 50.6736 35.0062 50.7336C34.9447 50.7833 34.8743 50.8204 34.7987 50.843C34.7318 50.8653 34.6618 50.8773 34.5913 50.8786C34.5028 50.8889 34.4131 50.8755 34.3313 50.8398C34.2496 50.804 34.1787 50.7473 34.1258 50.6751C34.0323 50.5227 33.9865 50.3455 33.9943 50.1666V46.6294C33.9881 46.4332 34.0298 46.2385 34.1157 46.0623C34.1672 45.9822 34.24 45.9183 34.3259 45.8778C34.4118 45.8374 34.5072 45.822 34.6014 45.8334C34.6869 45.8304 34.7718 45.8482 34.8489 45.8854C34.926 45.9226 34.993 45.9781 35.0441 46.047C35.1551 46.1927 35.2131 46.3722 35.2085 46.5556V46.8837H36.1901V46.4971C36.1921 46.2701 36.1509 46.0449 36.0686 45.8334C35.9954 45.6347 35.8826 45.453 35.7373 45.2994Z" fill="#AFB1B8"/>
<path d="M41.6289 45.2561C41.3127 44.9891 40.9136 44.8416 40.5007 44.8391C40.2987 44.84 40.0984 44.8761 39.9087 44.9459C39.7161 45.0149 39.5384 45.1202 39.3851 45.2561C39.2208 45.4038 39.0897 45.585 39.0005 45.7876C38.9006 46.0194 38.8515 46.27 38.8563 46.5225V50.1614C38.8495 50.4174 38.8987 50.6718 39.0005 50.9065C39.0903 51.1022 39.2215 51.2758 39.3851 51.4151C39.5367 51.5558 39.7147 51.6648 39.9087 51.7355C40.0984 51.8053 40.2987 51.8414 40.5007 51.8423C40.7027 51.8419 40.9031 51.8058 41.0926 51.7355C41.29 51.6638 41.4719 51.5551 41.6289 51.4151C41.7871 51.2732 41.9145 51.1 42.0033 50.9065C42.1051 50.6718 42.1544 50.4174 42.1475 50.1614V46.5225C42.1524 46.27 42.1032 46.0194 42.0033 45.7876C41.9151 45.5871 41.7878 45.4064 41.6289 45.2561ZM41.166 50.1614C41.1743 50.2584 41.1609 50.356 41.1268 50.4471C41.0926 50.5382 41.0386 50.6205 40.9687 50.6878C40.8377 50.7977 40.6725 50.8578 40.5019 50.8578C40.3313 50.8578 40.1662 50.7977 40.0352 50.6878C39.9652 50.6205 39.9112 50.5382 39.8771 50.4471C39.8429 50.356 39.8295 50.2584 39.8379 50.1614V46.5225C39.8295 46.4255 39.8429 46.3279 39.8771 46.2368C39.9112 46.1457 39.9652 46.0635 40.0352 45.9961C40.1662 45.8863 40.3313 45.8261 40.5019 45.8261C40.6725 45.8261 40.8377 45.8863 40.9687 45.9961C41.0386 46.0635 41.0926 46.1457 41.1268 46.2368C41.1609 46.3279 41.1743 46.4255 41.166 46.5225V50.1614Z" fill="#AFB1B8"/>
<path d="M49.3673 51.7864V44.8977H48.4136L47.1614 48.5442H47.1437L45.8813 44.8977H44.9377V51.7864H45.9218V47.5957H45.9395L46.9033 50.5582H47.3941L48.3655 47.5957H48.3832V51.7864H49.3673Z" fill="#AFB1B8"/>
<path d="M54.9582 45.3807C54.8067 45.2107 54.6154 45.0814 54.4016 45.0043C54.1713 44.9294 53.9303 44.8933 53.6883 44.8975H52.2261V51.7863H53.2076V49.0959H53.7136C54.0198 49.1098 54.3245 49.0451 54.599 48.9077C54.8221 48.7838 55.0082 48.602 55.1378 48.3813C55.2513 48.1981 55.3278 47.9942 55.3629 47.7812C55.4016 47.522 55.4193 47.2601 55.4161 46.998C55.4256 46.6672 55.3933 46.3365 55.3199 46.0139C55.2545 45.7755 55.13 45.5577 54.9582 45.3807ZM54.4522 47.4812C54.448 47.6059 54.4169 47.7282 54.3612 47.8397C54.3051 47.9456 54.2163 48.0304 54.1082 48.0813C53.9628 48.1463 53.8042 48.1759 53.6453 48.1677H53.1975V45.8257H53.7034C53.8558 45.8182 54.0077 45.8479 54.1461 45.9122C54.2476 45.9704 54.3282 46.0594 54.3763 46.1665C54.43 46.2875 54.4592 46.418 54.4624 46.5504C54.4624 46.6954 54.4624 46.848 54.4624 47.0082C54.4624 47.1684 54.4725 47.3337 54.4624 47.4812H54.4522Z" fill="#AFB1B8"/>
<path d="M59.6077 44.8977H58.8032L57.2854 51.7864H58.2669L58.5553 50.3065H59.8935L60.1819 51.7864H61.1635L59.6077 44.8977ZM58.702 49.3681L59.1852 46.871H59.2029L59.6836 49.3681H58.702Z" fill="#AFB1B8"/>
<path d="M65.9497 49.0477H65.932L64.4496 44.8977H63.506V51.7864H64.4875V47.644H64.5078L66.0079 51.7864H66.9312V44.8977H65.9497V49.0477Z" fill="#AFB1B8"/>
<path d="M71.9476 44.8977L71.1583 47.6364H71.1381L70.3488 44.8977H69.3091L70.6574 48.8748V51.7864H71.639V48.8748L72.9873 44.8977H71.9476Z" fill="#AFB1B8"/>
</g>
<defs>
<clipPath id="clip0_73667_15">
<rect width="106" height="52.8261" fill="white" transform="translate(0 0.0869751)"/>
</clipPath>
</defs>
</svg>
