<svg width="106" height="53" viewBox="0 0 106 53" fill="none" xmlns="http://www.w3.org/2000/svg">
<path d="M24.1462 21.1899H24.1433C21.7453 21.1899 19.8013 22.9175 19.8013 25.0485V25.0511C19.8013 27.1822 21.7453 28.9098 24.1433 28.9098H24.1462C26.5442 28.9098 28.4882 27.1822 28.4882 25.0511V25.0485C28.4882 22.9175 26.5442 21.1899 24.1462 21.1899Z" fill="#2196F3"/>
<path d="M56.195 19.9563C56.1882 16.9963 54.8623 14.1593 52.5074 12.066C50.1525 9.97271 46.9604 8.79371 43.6297 8.78699V8.78699C40.298 8.79236 37.1045 9.97078 34.7484 12.0642C32.3922 14.1576 31.0655 16.9955 31.0587 19.9563V36.2792C31.0587 36.2792 56.1922 33.7914 56.195 19.9589V19.9563Z" fill="#2196F3"/>
<path d="M11 41.6365C11.006 43.6961 11.9291 45.6698 13.5676 47.1264C15.2061 48.583 17.4267 49.404 19.7442 49.4101C22.0612 49.4041 24.2814 48.5834 25.9197 47.1273C27.5581 45.6713 28.4816 43.6982 28.4884 41.639V30.2814C28.4884 30.2814 11 32.0136 11 41.6365ZM19.7442 43.6715C19.2913 43.6715 18.8486 43.5521 18.472 43.3285C18.0955 43.1049 17.802 42.7871 17.6287 42.4153C17.4554 42.0434 17.41 41.6342 17.4984 41.2395C17.5867 40.8448 17.8048 40.4822 18.125 40.1976C18.4453 39.913 18.8533 39.7192 19.2975 39.6406C19.7416 39.5621 20.202 39.6024 20.6205 39.7564C21.0389 39.9105 21.3965 40.1713 21.6481 40.5059C21.8997 40.8406 22.034 41.234 22.034 41.6365C22.0351 41.9044 21.9767 42.1698 21.8622 42.4176C21.7476 42.6654 21.5791 42.8906 21.3664 43.0804C21.1536 43.2702 20.9008 43.4207 20.6224 43.5235C20.3441 43.6262 20.0456 43.6791 19.7442 43.6791V43.6715Z" fill="#2196F3"/>
<path d="M35.7302 40.0283V44.2939H34.8513V40.0283H35.7302ZM37.4294 41.8506V42.5361H35.49V41.8506H37.4294ZM37.6345 40.0283V40.7168H35.49V40.0283H37.6345ZM41.6482 42.0615V42.2637C41.6482 42.5879 41.6042 42.8789 41.5164 43.1367C41.4285 43.3945 41.3044 43.6143 41.1443 43.7959C40.9841 43.9756 40.7927 44.1133 40.5701 44.209C40.3494 44.3047 40.1042 44.3525 39.8347 44.3525C39.5671 44.3525 39.322 44.3047 39.0994 44.209C38.8787 44.1133 38.6873 43.9756 38.5251 43.7959C38.363 43.6143 38.2371 43.3945 38.1472 43.1367C38.0593 42.8789 38.0154 42.5879 38.0154 42.2637V42.0615C38.0154 41.7354 38.0593 41.4443 38.1472 41.1885C38.2351 40.9307 38.3591 40.7109 38.5193 40.5293C38.6814 40.3477 38.8728 40.209 39.0935 40.1133C39.3162 40.0176 39.5613 39.9697 39.8289 39.9697C40.0984 39.9697 40.3435 40.0176 40.5642 40.1133C40.7869 40.209 40.9783 40.3477 41.1384 40.5293C41.3005 40.7109 41.4255 40.9307 41.5134 41.1885C41.6033 41.4443 41.6482 41.7354 41.6482 42.0615ZM40.7605 42.2637V42.0557C40.7605 41.8291 40.74 41.6299 40.699 41.458C40.658 41.2861 40.5974 41.1416 40.5173 41.0244C40.4373 40.9072 40.3396 40.8193 40.2244 40.7607C40.1091 40.7002 39.9773 40.6699 39.8289 40.6699C39.6804 40.6699 39.5486 40.7002 39.4333 40.7607C39.3201 40.8193 39.2234 40.9072 39.1433 41.0244C39.0652 41.1416 39.0056 41.2861 38.9646 41.458C38.9236 41.6299 38.9031 41.8291 38.9031 42.0557V42.2637C38.9031 42.4883 38.9236 42.6875 38.9646 42.8613C39.0056 43.0332 39.0662 43.1787 39.1462 43.2979C39.2263 43.415 39.324 43.5039 39.4392 43.5645C39.5544 43.625 39.6863 43.6553 39.8347 43.6553C39.9832 43.6553 40.115 43.625 40.2302 43.5645C40.3455 43.5039 40.4421 43.415 40.5203 43.2979C40.5984 43.1787 40.658 43.0332 40.699 42.8613C40.74 42.6875 40.7605 42.4883 40.7605 42.2637ZM44.5017 43.1777C44.5017 43.1016 44.49 43.0332 44.4666 42.9727C44.4451 42.9102 44.4041 42.8535 44.3435 42.8027C44.283 42.75 44.198 42.6982 44.0886 42.6475C43.9792 42.5967 43.8376 42.5439 43.6638 42.4893C43.4705 42.4268 43.2869 42.3564 43.113 42.2783C42.9412 42.2002 42.7888 42.1094 42.656 42.0059C42.5251 41.9004 42.4216 41.7783 42.3455 41.6396C42.2712 41.501 42.2341 41.3398 42.2341 41.1562C42.2341 40.9785 42.2732 40.8174 42.3513 40.6729C42.4294 40.5264 42.5388 40.4014 42.6794 40.2979C42.8201 40.1924 42.9861 40.1113 43.1775 40.0547C43.3708 39.998 43.5828 39.9697 43.8132 39.9697C44.1277 39.9697 44.4021 40.0264 44.6365 40.1396C44.8708 40.2529 45.0525 40.4082 45.1814 40.6055C45.3123 40.8027 45.3777 41.0283 45.3777 41.2822H44.5046C44.5046 41.1572 44.4783 41.0479 44.4255 40.9541C44.3748 40.8584 44.2966 40.7832 44.1912 40.7285C44.0876 40.6738 43.9568 40.6465 43.7986 40.6465C43.6462 40.6465 43.5193 40.6699 43.4177 40.7168C43.3162 40.7617 43.24 40.8232 43.1892 40.9014C43.1384 40.9775 43.113 41.0635 43.113 41.1592C43.113 41.2314 43.1306 41.2969 43.1658 41.3555C43.2029 41.4141 43.2576 41.4688 43.3298 41.5195C43.4021 41.5703 43.491 41.6182 43.5964 41.6631C43.7019 41.708 43.824 41.752 43.9626 41.7949C44.1951 41.8652 44.3992 41.9443 44.575 42.0322C44.7527 42.1201 44.9011 42.2188 45.0203 42.3281C45.1394 42.4375 45.2292 42.5615 45.2898 42.7002C45.3503 42.8389 45.3806 42.9961 45.3806 43.1719C45.3806 43.3574 45.3445 43.5234 45.2722 43.6699C45.2 43.8164 45.0955 43.9404 44.9587 44.042C44.822 44.1436 44.6589 44.2207 44.4695 44.2734C44.28 44.3262 44.0681 44.3525 43.8337 44.3525C43.6228 44.3525 43.4148 44.3252 43.2097 44.2705C43.0046 44.2139 42.8181 44.1289 42.6501 44.0156C42.4841 43.9023 42.3513 43.7578 42.2517 43.582C42.1521 43.4062 42.1023 43.1982 42.1023 42.958H42.9841C42.9841 43.0908 43.0046 43.2031 43.0457 43.2949C43.0867 43.3867 43.1443 43.4609 43.2185 43.5176C43.2947 43.5742 43.3845 43.6152 43.488 43.6406C43.5935 43.666 43.7087 43.6787 43.8337 43.6787C43.9861 43.6787 44.1111 43.6572 44.2087 43.6143C44.3083 43.5713 44.3816 43.5117 44.4285 43.4355C44.4773 43.3594 44.5017 43.2734 44.5017 43.1777ZM47.8855 40.0283V44.2939H47.0095V40.0283H47.8855ZM49.198 40.0283V40.7168H45.7175V40.0283H49.198ZM52.5613 43.6084V44.2939H50.2908V43.6084H52.5613ZM50.5779 40.0283V44.2939H49.699V40.0283H50.5779ZM52.2654 41.7656V42.4336H50.2908V41.7656H52.2654ZM52.5583 40.0283V40.7168H50.2908V40.0283H52.5583ZM53.074 40.0283H54.6648C54.991 40.0283 55.2712 40.0771 55.5056 40.1748C55.7419 40.2725 55.9236 40.417 56.0505 40.6084C56.1775 40.7998 56.241 41.0352 56.241 41.3145C56.241 41.543 56.2019 41.7393 56.1238 41.9033C56.0476 42.0654 55.9392 42.2012 55.7986 42.3105C55.6599 42.418 55.4968 42.5039 55.3093 42.5684L55.031 42.7148H53.6482L53.6423 42.0293H54.6707C54.825 42.0293 54.9529 42.002 55.0544 41.9473C55.156 41.8926 55.2322 41.8164 55.283 41.7188C55.3357 41.6211 55.3621 41.5078 55.3621 41.3789C55.3621 41.2422 55.3367 41.124 55.2859 41.0244C55.2351 40.9248 55.158 40.8486 55.0544 40.7959C54.9509 40.7432 54.821 40.7168 54.6648 40.7168H53.9529V44.2939H53.074V40.0283ZM55.4587 44.2939L54.4861 42.3926L55.4148 42.3867L56.3992 44.2529V44.2939H55.4587ZM60.073 42.7734H58.9861V42.0879H60.073C60.241 42.0879 60.3777 42.0605 60.4832 42.0059C60.5886 41.9492 60.6658 41.8711 60.7146 41.7715C60.7634 41.6719 60.7878 41.5596 60.7878 41.4346C60.7878 41.3076 60.7634 41.1895 60.7146 41.0801C60.6658 40.9707 60.5886 40.8828 60.4832 40.8164C60.3777 40.75 60.241 40.7168 60.073 40.7168H59.2908V44.2939H58.4119V40.0283H60.073C60.407 40.0283 60.6931 40.0889 60.9314 40.21C61.1716 40.3291 61.3552 40.4941 61.4822 40.7051C61.6091 40.916 61.6726 41.1572 61.6726 41.4287C61.6726 41.7041 61.6091 41.9424 61.4822 42.1436C61.3552 42.3447 61.1716 42.5 60.9314 42.6094C60.6931 42.7188 60.407 42.7734 60.073 42.7734ZM65.1414 43.6084V44.2939H62.8708V43.6084H65.1414ZM63.158 40.0283V44.2939H62.2791V40.0283H63.158ZM64.8455 41.7656V42.4336H62.8708V41.7656H64.8455ZM65.1384 40.0283V40.7168H62.8708V40.0283H65.1384ZM67.6199 40.0283V44.2939H66.7439V40.0283H67.6199ZM68.9324 40.0283V40.7168H65.4519V40.0283H68.9324ZM72.2957 43.6084V44.2939H70.0251V43.6084H72.2957ZM70.3123 40.0283V44.2939H69.4333V40.0283H70.3123ZM71.9998 41.7656V42.4336H70.0251V41.7656H71.9998ZM72.2927 40.0283V40.7168H70.0251V40.0283H72.2927ZM72.8083 40.0283H74.3992C74.7253 40.0283 75.0056 40.0771 75.24 40.1748C75.4763 40.2725 75.658 40.417 75.7849 40.6084C75.9119 40.7998 75.9753 41.0352 75.9753 41.3145C75.9753 41.543 75.9363 41.7393 75.8582 41.9033C75.782 42.0654 75.6736 42.2012 75.533 42.3105C75.3943 42.418 75.2312 42.5039 75.0437 42.5684L74.7654 42.7148H73.3826L73.3767 42.0293H74.405C74.5593 42.0293 74.6873 42.002 74.7888 41.9473C74.8904 41.8926 74.9666 41.8164 75.0173 41.7188C75.0701 41.6211 75.0964 41.5078 75.0964 41.3789C75.0964 41.2422 75.071 41.124 75.0203 41.0244C74.9695 40.9248 74.8923 40.8486 74.7888 40.7959C74.6853 40.7432 74.5554 40.7168 74.3992 40.7168H73.6873V44.2939H72.8083V40.0283ZM75.1931 44.2939L74.2205 42.3926L75.1492 42.3867L76.1335 44.2529V44.2939H75.1931ZM78.8728 43.1777C78.8728 43.1016 78.8611 43.0332 78.8376 42.9727C78.8162 42.9102 78.7751 42.8535 78.7146 42.8027C78.6541 42.75 78.5691 42.6982 78.4597 42.6475C78.3503 42.5967 78.2087 42.5439 78.0349 42.4893C77.8416 42.4268 77.658 42.3564 77.4841 42.2783C77.3123 42.2002 77.1599 42.1094 77.0271 42.0059C76.8962 41.9004 76.7927 41.7783 76.7166 41.6396C76.6423 41.501 76.6052 41.3398 76.6052 41.1562C76.6052 40.9785 76.6443 40.8174 76.7224 40.6729C76.8005 40.5264 76.9099 40.4014 77.0505 40.2979C77.1912 40.1924 77.3572 40.1113 77.5486 40.0547C77.7419 39.998 77.9539 39.9697 78.1843 39.9697C78.4988 39.9697 78.7732 40.0264 79.0076 40.1396C79.2419 40.2529 79.4236 40.4082 79.5525 40.6055C79.6833 40.8027 79.7488 41.0283 79.7488 41.2822H78.8757C78.8757 41.1572 78.8494 41.0479 78.7966 40.9541C78.7458 40.8584 78.6677 40.7832 78.5623 40.7285C78.4587 40.6738 78.3279 40.6465 78.1697 40.6465C78.0173 40.6465 77.8904 40.6699 77.7888 40.7168C77.6873 40.7617 77.6111 40.8232 77.5603 40.9014C77.5095 40.9775 77.4841 41.0635 77.4841 41.1592C77.4841 41.2314 77.5017 41.2969 77.5369 41.3555C77.574 41.4141 77.6287 41.4688 77.7009 41.5195C77.7732 41.5703 77.8621 41.6182 77.9675 41.6631C78.073 41.708 78.1951 41.752 78.3337 41.7949C78.5662 41.8652 78.7703 41.9443 78.946 42.0322C79.1238 42.1201 79.2722 42.2188 79.3914 42.3281C79.5105 42.4375 79.6003 42.5615 79.6609 42.7002C79.7214 42.8389 79.7517 42.9961 79.7517 43.1719C79.7517 43.3574 79.7156 43.5234 79.6433 43.6699C79.571 43.8164 79.4666 43.9404 79.3298 44.042C79.1931 44.1436 79.03 44.2207 78.8406 44.2734C78.6511 44.3262 78.4392 44.3525 78.2048 44.3525C77.9939 44.3525 77.7859 44.3252 77.5808 44.2705C77.3757 44.2139 77.1892 44.1289 77.0212 44.0156C76.8552 43.9023 76.7224 43.7578 76.6228 43.582C76.5232 43.4062 76.4734 43.1982 76.4734 42.958H77.3552C77.3552 43.0908 77.3757 43.2031 77.4167 43.2949C77.4578 43.3867 77.5154 43.4609 77.5896 43.5176C77.6658 43.5742 77.7556 43.6152 77.8591 43.6406C77.9646 43.666 78.0798 43.6787 78.2048 43.6787C78.3572 43.6787 78.4822 43.6572 78.5798 43.6143C78.6794 43.5713 78.7527 43.5117 78.7996 43.4355C78.8484 43.3594 78.8728 43.2734 78.8728 43.1777Z" fill="#2196F3"/>
</svg>
