<svg width="106" height="53" viewBox="0 0 106 53" fill="none" xmlns="http://www.w3.org/2000/svg">
<path d="M53.425 27.4952C52.9819 26.9054 52.7699 26.2083 52.8203 25.5066V22.6234C52.8203 21.7396 53.0207 21.0679 53.4216 20.6084C53.8224 20.1489 54.511 19.9201 55.4871 19.9221C56.4044 19.9221 57.0555 20.1176 57.4405 20.5087C57.8605 21.0077 58.0648 21.6178 58.018 22.2333V22.9108H56.3772V22.2245C56.383 21.9999 56.3671 21.7752 56.3296 21.5528C56.306 21.4008 56.2234 21.2602 56.0952 21.154C55.9267 21.0394 55.7145 20.9839 55.5007 20.9985C55.2759 20.984 55.0529 21.0426 54.8756 21.1628C54.7327 21.2804 54.6374 21.4347 54.6038 21.6027C54.5567 21.838 54.5351 22.0766 54.5393 22.3154V25.8146C54.5134 26.1521 54.5858 26.4899 54.7499 26.7971C54.8315 26.9011 54.9448 26.9835 55.0774 27.0353C55.2099 27.087 55.3564 27.1061 55.5007 27.0904C55.7109 27.1054 55.9195 27.0485 56.0816 26.9321C56.2153 26.8175 56.3013 26.668 56.3262 26.5068C56.3645 26.2746 56.3816 26.0402 56.3772 25.8058V25.096H58.018V25.7442C58.0641 26.3857 57.8648 27.0226 57.4507 27.5568C57.0736 27.985 56.4315 28.1991 55.4871 28.1991C54.5427 28.1991 53.8292 27.9704 53.425 27.4952Z" fill="#AFB1B8"/>
<path d="M60.2569 27.5245C59.8425 27.0758 59.6353 26.4217 59.6353 25.5565V22.5237C59.6353 21.6672 59.8425 21.019 60.2569 20.5791C60.6714 20.1391 61.3644 19.9201 62.336 19.9221C63.3008 19.9221 63.9904 20.1411 64.4049 20.5791C64.8193 21.019 65.03 21.6672 65.03 22.5237V25.5565C65.03 26.4129 64.8193 27.0699 64.3981 27.5216C63.9768 27.9733 63.2906 28.1991 62.336 28.1991C61.3814 28.1991 60.6748 27.9704 60.2569 27.5245ZM63.1004 26.7971C63.2488 26.516 63.3164 26.2081 63.2974 25.8996V22.1864C63.3165 21.8839 63.25 21.5819 63.1038 21.3065C63.0205 21.2003 62.9044 21.1166 62.7686 21.0647C62.6329 21.0128 62.483 20.995 62.336 21.0132C62.1886 20.9954 62.0384 21.0135 61.9022 21.0653C61.766 21.1171 61.6492 21.2006 61.5648 21.3065C61.4155 21.5811 61.3477 21.8835 61.3678 22.1864V25.9172C61.3472 26.2258 61.4148 26.5341 61.5648 26.8147C61.6605 26.9094 61.7785 26.9852 61.9109 27.0371C62.0434 27.0891 62.1872 27.116 62.3326 27.116C62.4781 27.116 62.6219 27.0891 62.7543 27.0371C62.8867 26.9852 63.0047 26.9094 63.1004 26.8147V26.7971Z" fill="#AFB1B8"/>
<path d="M67.0035 20.0106H68.7701L70.0984 25.6062L71.4573 20.0106H73.1763L73.3496 28.0873H72.079L71.9431 22.474L70.6318 28.0873H69.6126L68.2537 22.4535L68.128 28.0873H66.8439L67.0035 20.0106Z" fill="#AFB1B8"/>
<path d="M75.3303 20.0106H78.082C79.6673 20.0106 80.46 20.775 80.46 22.3039C80.46 23.7684 79.6254 24.4996 77.9563 24.4976H77.0187V28.0873H75.3201L75.3303 20.0106ZM77.6811 23.4624C77.8489 23.4808 78.0194 23.4675 78.1807 23.4234C78.342 23.3794 78.4903 23.3056 78.6153 23.2072C78.8101 22.9344 78.896 22.6141 78.8599 22.2952C78.8688 22.0488 78.8414 21.8024 78.7784 21.562C78.7542 21.4817 78.7117 21.4063 78.6533 21.3404C78.595 21.2744 78.522 21.2191 78.4387 21.1778C78.2029 21.0801 77.9422 21.0357 77.6811 21.0487H77.0221V23.4624H77.6811Z" fill="#AFB1B8"/>
<path d="M82.9094 20.0106H84.7337L86.6056 28.0873H85.0225L84.6522 26.225H83.0249L82.6445 28.0873H81.0376L82.9094 20.0106ZM84.4687 25.2895L83.8335 21.8992L83.1982 25.2895H84.4687Z" fill="#AFB1B8"/>
<path d="M88.1173 20.0106H89.3063L91.5825 24.6179V20.0106H92.9923V28.0873H91.861L89.5713 23.2776V28.0873H88.1139L88.1173 20.0106Z" fill="#AFB1B8"/>
<path d="M96.2945 25.0077L94.4022 20.0219H95.9955L97.1506 23.2245L98.2343 20.0219H99.7936L97.9251 25.0077V28.0872H96.2945V25.0077Z" fill="#AFB1B8"/>
<path d="M56.0477 31.6185V32.0409H54.6617V35.3228H54.0807V32.0409H52.6879V31.6185H56.0477Z" fill="#AFB1B8"/>
<path d="M60.3927 35.3231H59.9442C59.8987 35.3256 59.8538 35.313 59.8185 35.2879C59.7846 35.2664 59.7587 35.2369 59.7438 35.2029L59.3429 34.323H57.4201L57.0192 35.2029C57.0078 35.2397 56.9869 35.2738 56.958 35.3026C56.9225 35.3271 56.8778 35.3397 56.8324 35.3378H56.3839L58.0825 31.6337H58.6737L60.3927 35.3231ZM57.5797 33.9476H59.1833L58.5038 32.4402C58.4537 32.3262 58.4117 32.2096 58.3781 32.0912C58.3543 32.1616 58.3339 32.229 58.3136 32.2877L58.2524 32.4431L57.5797 33.9476Z" fill="#AFB1B8"/>
<path d="M63.3212 34.9593C63.4275 34.9641 63.5341 34.9641 63.6405 34.9593C63.7323 34.9511 63.8232 34.9364 63.9123 34.9153C63.9955 34.8977 64.0772 34.8751 64.1569 34.8478C64.2316 34.8214 64.3064 34.7891 64.3845 34.7569V33.9239H63.705C63.6882 33.9247 63.6714 33.9225 63.6556 33.9174C63.6399 33.9124 63.6255 33.9046 63.6133 33.8945C63.6022 33.8862 63.5933 33.8758 63.5875 33.8641C63.5816 33.8524 63.5788 33.8398 63.5794 33.8271V33.5425H64.8975V34.9622C64.7899 35.0287 64.6763 35.0875 64.5577 35.1382C64.4366 35.1898 64.3104 35.232 64.1807 35.2643C64.0417 35.2996 63.8997 35.3251 63.756 35.3406C63.5913 35.3564 63.4257 35.3642 63.26 35.3641C62.967 35.3662 62.6763 35.3194 62.4039 35.2262C62.1496 35.1379 61.9185 35.0062 61.7245 34.839C61.5353 34.6701 61.3864 34.4708 61.2862 34.2524C61.1792 34.0068 61.1261 33.7462 61.13 33.4839C61.1264 33.2199 61.1782 32.9576 61.2828 32.7095C61.3805 32.49 61.5297 32.2903 61.7211 32.1229C61.9149 31.9562 62.1461 31.8255 62.4005 31.7386C62.6914 31.6441 63.0002 31.5974 63.311 31.6008C63.4691 31.6006 63.627 31.6114 63.7832 31.633C63.9213 31.6524 64.0567 31.6839 64.1875 31.7269C64.3063 31.7654 64.4202 31.8146 64.5272 31.8735C64.6313 31.9314 64.7301 31.9962 64.8227 32.0671L64.6597 32.2959C64.6469 32.3168 64.6279 32.3344 64.6046 32.3468C64.5813 32.3591 64.5545 32.3659 64.5272 32.3663C64.4896 32.3653 64.4531 32.3551 64.4219 32.337C64.3709 32.3135 64.3165 32.2842 64.2554 32.249C64.1832 32.2099 64.107 32.1765 64.0278 32.1493C63.9265 32.1142 63.822 32.0867 63.7152 32.0671C63.5729 32.0445 63.4285 32.0337 63.2838 32.0349C63.0597 32.0327 62.8371 32.0676 62.6281 32.1375C62.4391 32.203 62.2687 32.3031 62.1287 32.4309C61.9879 32.564 61.8804 32.7208 61.8128 32.8914C61.661 33.2926 61.661 33.725 61.8128 34.1262C61.8871 34.3005 62.0029 34.4593 62.1525 34.5926C62.2918 34.7197 62.4609 34.8197 62.6485 34.8859C62.8645 34.95 63.0935 34.9749 63.3212 34.9593Z" fill="#AFB1B8"/>
<path d="M68.7363 34.9005H70.5912V35.3228H68.1689V31.6185H68.7499L68.7363 34.9005Z" fill="#AFB1B8"/>
<path d="M72.5208 35.3228H71.9398V31.6185H72.5208V35.3228Z" fill="#AFB1B8"/>
<path d="M74.6814 31.6361C74.7159 31.6531 74.746 31.6761 74.7697 31.7036L77.253 34.4959C77.2497 34.452 77.2497 34.4079 77.253 34.3639C77.253 34.3229 77.253 34.2818 77.253 34.2437V31.6039H77.7592V35.3231H77.4671C77.4238 35.3261 77.3804 35.319 77.3414 35.3025C77.3061 35.2841 77.275 35.2602 77.2496 35.2321L74.7697 32.4428C74.7697 32.4867 74.7697 32.5278 74.7697 32.5689C74.7697 32.6099 74.7697 32.6481 74.7697 32.6833V35.3231H74.2839V31.6185H74.5863C74.6191 31.6186 74.6515 31.6246 74.6814 31.6361Z" fill="#AFB1B8"/>
<path d="M82.0364 31.6185V32.0262H79.9777V33.2493H81.6457V33.6423H79.9777V34.9064H82.0364V35.3141H79.3798V31.6185H82.0364Z" fill="#AFB1B8"/>
<path d="M21.1618 8.74242L46.9568 15.0657V37.2237L21.1618 30.9033V8.74242ZM19.5073 6.85364V31.9797L48.6079 39.1154V13.9923L19.5073 6.85364Z" fill="#AFB1B8"/>
<path d="M35.1039 50.7791L6 43.6375V18.514L35.1039 25.6528V50.7791Z" fill="#AFB1B8"/>
<path d="M19.9897 8.4579L45.4484 14.7019L34.6215 24.0518L9.1594 17.8049L19.9897 8.4579ZM19.5073 6.85364L6 18.5146L35.1039 25.6531L48.6078 13.9922L19.5073 6.85364Z" fill="#AFB1B8"/>
<path d="M36.7415 49.3657L48.6078 39.1185L36.7415 36.2062V49.3657Z" fill="#AFB1B8"/>
</svg>
